<svg xmlns="http://www.w3.org/2000/svg" width="314" height="81" viewBox="0 0 314 81">
  <path fill="#6A53FF" fill-rule="evenodd" d="M168.857667 38.0634612C161.979333 38.0634612 156.404333 32.4640327 156.404333 25.5576245 156.404333 18.6528898 161.979333 13.0551347 168.857667 13.0551347 175.734333 13.0551347 181.311 18.6528898 181.311 25.5576245 181.311 32.4640327 175.734333 38.0634612 168.857667 38.0634612M168.857667 4.51207347C157.281 4.51207347 147.896 13.9353796 147.896 25.5576245 147.896 37.1832163 157.281 46.604849 168.857667 46.604849 180.434333 46.604849 189.819333 37.1832163 189.819333 25.5576245 189.819333 13.9353796 180.434333 4.51207347 168.857667 4.51207347M72.4538333 13.0561388C77.8605 13.1448327 81.7188333 16.7193633 83.0888333 21.6460571L60.4205 21.6460571C62.0855 16.5587102 67.0005 12.9674449 72.4538333 13.0561388M71.9755 4.51475102C61.3288333 4.65030204 52.2788333 13.0477714 51.3688333 23.6977306 50.3021667 36.1600571 60.0605 46.6058531 72.2505 46.6058531 78.0821667 46.6058531 83.3571667 44.2127918 87.1555 40.3537714 89.0205 38.4577306 88.6271667 35.2965469 86.4105 33.8305878 84.7038333 32.7026694 82.4688333 32.9821388 81.0205 34.4280163 78.7705 36.6738122 75.6738333 38.0627918 72.2505 38.0627918 66.4821667 38.0627918 61.6421667 34.1217714 60.2255 28.7783837L88.2238333 28.7783837C90.3555 28.7783837 92.1105 27.068098 92.1438333 24.9277306L92.1455 24.8875673C91.7888333 13.4845469 83.4688333 4.36748571 71.9755 4.51475102M293.423833 13.0561388C298.8305 13.1448327 302.688833 16.7193633 304.058833 21.6460571L281.388833 21.6460571C283.053833 16.5587102 287.9705 12.9674449 293.423833 13.0561388M292.9455 4.51475102C282.298833 4.65030204 273.248833 13.0477714 272.338833 23.6977306 271.272167 36.1600571 281.0305 46.6058531 293.218833 46.6058531 299.052167 46.6058531 304.3255 44.2127918 308.1255 40.3537714 309.9905 38.4577306 309.5955 35.2965469 307.3805 33.8305878 305.673833 32.7026694 303.438833 32.9821388 301.988833 34.4280163 299.7405 36.6738122 296.642167 38.0627918 293.218833 38.0627918 287.452167 38.0627918 282.612167 34.1217714 281.1955 28.7783837L309.193833 28.7783837C311.3255 28.7783837 313.0805 27.068098 313.113833 24.9277306L313.113833 24.8875673C312.758833 13.4845469 304.438833 4.36748571 292.9455 4.51475102M122.123333 5.9946C117.706667 6.01970204 114.068333 7.52917143 111.29 9.9306 111.026667 7.55427347 109.041667 5.69839592 106.605 5.69839592 103.988333 5.69839592 101.866667 7.82872245 101.866667 10.4543959L101.866667 41.1508449C101.866667 43.7246408 103.946667 45.8131306 106.511667 45.8131306L106.7 45.8131306C109.263333 45.8131306 111.343333 43.7246408 111.343333 41.1508449L111.343333 26.630151 111.373333 23.3970082C111.571667 18.9506 114.416667 13.677498 121.746667 14.3201102 126.538333 14.740151 129.5 18.3615388 129.5 23.5124776L129.5 41.1508449C129.5 43.7246408 131.58 45.8131306 134.143333 45.8131306 136.708333 45.8131306 138.788333 43.7246408 138.788333 41.1508449L138.788333 21.9528041C138.788333 13.1520286 131.838333 5.94104898 122.123333 5.9946M246.369833 5.9946C240.4165 6.02806939 235.858167 8.91145714 232.954833 13.0583143 230.069833 8.78092653 225.069833 5.95945714 218.979833 5.9946 214.573167 6.01970204 210.9415 7.61786531 208.1665 10.119702 207.993167 7.65133469 205.964833 5.69839592 203.4615 5.69839592 200.8465 5.69839592 198.724833 7.82872245 198.724833 10.4543959L198.724833 41.1776204C198.724833 43.7530898 200.803167 45.8415796 203.368167 45.8415796L203.5565 45.8415796C206.1215 45.8415796 208.199833 43.7530898 208.199833 41.1776204L208.199833 27.1154571 208.229833 23.3970082C208.429833 18.9506 211.273167 13.677498 218.603167 14.3201102 223.3965 14.740151 226.358167 18.3615388 226.358167 23.5124776L226.358167 41.1776204C226.358167 43.7530898 228.4365 45.8415796 230.999833 45.8415796 233.564833 45.8415796 235.643167 43.7530898 235.643167 41.1776204L235.643167 23.0823959C235.9615 18.7062735 238.834833 13.6925592 245.993167 14.3201102 250.784833 14.740151 253.7465 18.3615388 253.7465 23.5124776L253.7465 41.1776204C253.7465 43.7530898 255.8265 45.8415796 258.389833 45.8415796 260.954833 45.8415796 263.033167 43.7530898 263.033167 41.1776204L263.033167 21.9528041C263.033167 13.1520286 256.084833 5.94104898 246.369833 5.9946M34.717 43.1312286C32.5736667 41.6318 29.2936667 39.8579224 23.717 38.5643306 18.8653333 37.7828204 15.8603333 37.1151061 13.8653333 35.6474735 10.887 33.4585755 9.14866667 30.1902898 9.10033333 26.1254327 9.03033333 20.3486163 12.6503333 15.2964122 18.212 13.8137184 26.6186667 11.5746163 34.1903333 17.876902 34.1903333 25.9547388 34.1903333 29.9208612 33.5253333 31.4571061 31.1653333 34.1731469 31.1653333 34.1731469 29.9753333 35.7629429 27.0336667 37.3443714 28.7453333 37.7861673 31.492 38.8454735 35.5553333 41.3054735 36.6386667 40.5574327 37.6053333 39.8010245 38.2003333 39.1349837 41.597 35.2424939 42.9336667 30.8764122 42.7503333 25.2518816 42.632 21.5401265 41.522 18.044249 39.687 15.0269837 39.2786667 14.3559224 38.7553333 13.7618408 38.1836667 13.2263306L36.022 11.1997592 38.437 7.79592245C39.8953333 5.5902898 39.297 2.61653469 37.1003333 1.15224898 34.9036667-.312036735 31.942.288738776 30.4836667 2.49437143L28.2986667 5.8798C26.5003333 5.26563673 24.6103333 4.86400408 22.6386667 4.77363673 10.5236667 4.21469796.527 13.9124531.527 25.9547388.527 31.8804939 2.95366667 37.232249 6.85533333 41.0795551L3.917 44.7779224C2.477 46.9969429 3.102 49.9656776 5.31033333 51.4098816 7.52033333 52.8557592 10.477 52.2282082 11.9153333 50.0091878L14.8236667 46.0079224C17.282 46.5116367 21.737 47.1475551 21.7836667 47.1525755 29.2536667 48.0127388 34.9703333 53.6556776 34.1053333 61.2298 33.462 66.8861265 28.9136667 71.5166163 23.2886667 72.2362082 19.4536667 72.7265347 15.9086667 71.4731061 13.322 69.1620449 11.8036667 67.8048612 9.57366667 67.3998816 7.872 68.5127388 5.50033333 70.0657184 5.26033333 73.4009429 7.302 75.3020041 11.7553333 79.4438408 17.9886667 81.6846163 24.7236667 80.7290653 34.3203333 79.3668612 41.8536667 71.3124531 42.682 61.6163714 43.3236667 54.1158816 40.0536667 47.3701265 34.717 43.1312286"/>
</svg>